<?xml version="1.0" encoding="UTF-8" standalone="no"?><!DOCTYPE svg PUBLIC "-//W3C//DTD SVG 1.1//EN" "http://www.w3.org/Graphics/SVG/1.1/DTD/svg11.dtd"><svg width="100%" height="100%" viewBox="0 0 2373 434" version="1.1" xmlns="http://www.w3.org/2000/svg" xmlns:xlink="http://www.w3.org/1999/xlink" xml:space="preserve" xmlns:serif="http://www.serif.com/" style="fill-rule:evenodd;clip-rule:evenodd;stroke-linejoin:round;stroke-miterlimit:2;"><g><path d="M294.6,407.4c-16.4,8 -34.6,14.4 -54.6,19.2c-20,4.8 -44.4,7.2 -73.2,7.2c-24.8,-0 -47.5,-4.1 -68.1,-12.3c-20.6,-8.2 -38.2,-19.9 -52.8,-35.1c-14.6,-15.2 -25.9,-33.7 -33.9,-55.5c-8,-21.8 -12,-46.3 -12,-73.5c-0,-31.2 5.5,-62.2 16.5,-93c11,-30.8 27.2,-58.3 48.6,-82.5c21.4,-24.2 47.6,-43.9 78.6,-59.1c31,-15.2 66.7,-22.8 107.1,-22.8c19.2,0 38.1,2.2 56.7,6.6c18.6,4.4 38.1,12.2 58.5,23.4l-33.6,72.6c-16.8,-8.8 -31.8,-14.8 -45,-18c-13.2,-3.2 -27.4,-4.8 -42.6,-4.8c-22.8,0 -43.3,4.6 -61.5,13.8c-18.2,9.2 -33.8,21.7 -46.8,37.5c-13,15.8 -22.9,34.1 -29.7,54.9c-6.8,20.8 -10.2,42.8 -10.2,66c-0,35.2 7.7,60.8 23.1,76.8c15.4,16 37.5,24 66.3,24c19.2,0 36.9,-2 53.1,-6c16.2,-4 31.3,-9.2 45.3,-15.6l10.2,76.2Z" style="fill:#4d4d4e;fill-rule:nonzero;"/><path d="M481.8,433.8c-21.2,-0 -39.6,-3.2 -55.2,-9.6c-15.6,-6.4 -28.5,-15.4 -38.7,-27c-10.2,-11.6 -17.9,-25.3 -23.1,-41.1c-5.2,-15.8 -7.8,-33.3 -7.8,-52.5c0,-24 3.9,-48 11.7,-72c7.8,-24 19.3,-45.6 34.5,-64.8c15.2,-19.2 33.8,-34.9 55.8,-47.1c22,-12.2 47.2,-18.3 75.6,-18.3c20.8,0 39.1,3.2 54.9,9.6c15.8,6.4 28.8,15.4 39,27c10.2,11.6 17.9,25.3 23.1,41.1c5.2,15.8 7.8,33.3 7.8,52.5c0,24 -3.8,48 -11.4,72c-7.6,24 -18.8,45.6 -33.6,64.8c-14.8,19.2 -33.3,34.9 -55.5,47.1c-22.2,12.2 -47.9,18.3 -77.1,18.3Zm44.4,-256.8c-13.2,0 -24.8,3.8 -34.8,11.4c-10,7.6 -18.4,17.2 -25.2,28.8c-6.8,11.6 -11.9,24.3 -15.3,38.1c-3.4,13.8 -5.1,26.9 -5.1,39.3c0,20.4 3.2,36.1 9.6,47.1c6.4,11 18,16.5 34.8,16.5c13.2,0 24.8,-3.8 34.8,-11.4c10,-7.6 18.4,-17.2 25.2,-28.8c6.8,-11.6 11.9,-24.3 15.3,-38.1c3.4,-13.8 5.1,-26.9 5.1,-39.3c0,-20.4 -3.2,-36.1 -9.6,-47.1c-6.4,-11 -18,-16.5 -34.8,-16.5Z" style="fill:#4d4d4e;fill-rule:nonzero;"/><path d="M924.6,186.6c-8,-2 -15.9,-3.9 -23.7,-5.7c-7.8,-1.8 -19.3,-2.7 -34.5,-2.7c-5.6,0 -11.8,0.5 -18.6,1.5c-6.8,1 -12.4,2.1 -16.8,3.3l-58.2,242.4l-89.4,0l72,-298.8c17.2,-5.6 36.5,-10.9 57.9,-15.9c21.4,-5 45.5,-7.5 72.3,-7.5c10,0 21.1,0.9 33.3,2.7c12.2,1.8 22.9,4.7 32.1,8.7l-26.4,72Z" style="fill:#4d4d4e;fill-rule:nonzero;"/><path d="M945,301.8c0,-25.6 4.5,-50.4 13.5,-74.4c9,-24 21.7,-45.3 38.1,-63.9c16.4,-18.6 36.3,-33.6 59.7,-45c23.4,-11.4 49.3,-17.1 77.7,-17.1c14,0 27,2 39,6c12,4 22.5,9.8 31.5,17.4c9,7.6 16,16.9 21,27.9c5,11 7.5,23.5 7.5,37.5c0,22.4 -5,41.4 -15,57c-10,15.6 -23.9,28.3 -41.7,38.1c-17.8,9.8 -38.9,16.9 -63.3,21.3c-24.4,4.4 -51,6.6 -79.8,6.6c2.8,16.8 8.9,28.7 18.3,35.7c9.4,7 24.3,10.5 44.7,10.5c12.8,0 25.8,-1.1 39,-3.3c13.2,-2.2 25.6,-5.5 37.2,-9.9l6.6,70.2c-11.2,4.4 -25.5,8.4 -42.9,12c-17.4,3.6 -36.3,5.4 -56.7,5.4c-24.8,-0 -45.7,-3.5 -62.7,-10.5c-17,-7 -30.8,-16.5 -41.4,-28.5c-10.6,-12 -18.3,-26 -23.1,-42c-4.8,-16 -7.2,-33 -7.2,-51Zm174.6,-129.6c-20.4,-0 -38.3,7.3 -53.7,21.9c-15.4,14.6 -25.5,33.9 -30.3,57.9c24.8,-0.8 44.8,-2.9 60,-6.3c15.2,-3.4 27,-7.5 35.4,-12.3c8.4,-4.8 14,-10 16.8,-15.6c2.8,-5.6 4.2,-11.2 4.2,-16.8c0,-19.2 -10.8,-28.8 -32.4,-28.8Z" style="fill:#4d4d4e;fill-rule:nonzero;"/><path d="M1390.2,430.8c-24,-0 -48.6,-1 -73.8,-3c-25.2,-2 -48,-5.2 -68.4,-9.6l96,-402c22.8,-4.4 46.7,-7.4 71.7,-9c25,-1.6 47.9,-2.4 68.7,-2.4c24,0 44.7,2.5 62.1,7.5c17.4,5 31.6,11.7 42.6,20.1c11,8.4 19.2,18.3 24.6,29.7c5.4,11.4 8.1,23.5 8.1,36.3c0,8.8 -0.9,18 -2.7,27.6c-1.8,9.6 -5.4,19.1 -10.8,28.5c-5.4,9.4 -12.8,18.3 -22.2,26.7c-9.4,8.4 -21.7,16 -36.9,22.8c18,8 31.2,18.9 39.6,32.7c8.4,13.8 12.6,29.1 12.6,45.9c0,19.2 -3.8,37.7 -11.4,55.5c-7.6,17.8 -19.8,33.6 -36.6,47.4c-16.8,13.8 -38.6,24.8 -65.4,33c-26.8,8.2 -59.4,12.3 -97.8,12.3Zm-8.4,-187.2l-25.8,108c6.4,1.2 14.5,2.1 24.3,2.7c9.8,0.6 18.9,0.9 27.3,0.9c12,0 23.9,-0.9 35.7,-2.7c11.8,-1.8 22.4,-5.1 31.8,-9.9c9.4,-4.8 17.1,-11.4 23.1,-19.8c6,-8.4 9,-19.2 9,-32.4c0,-5.6 -1.1,-11.2 -3.3,-16.8c-2.2,-5.6 -5.7,-10.6 -10.5,-15c-4.8,-4.4 -11.1,-8 -18.9,-10.8c-7.8,-2.8 -17.1,-4.2 -27.9,-4.2l-64.8,0Zm17.4,-70.2l58.8,-0c24,-0 41.9,-5.2 53.7,-15.6c11.8,-10.4 17.7,-22.8 17.7,-37.2c0,-7.6 -1.7,-14.1 -5.1,-19.5c-3.4,-5.4 -7.9,-9.7 -13.5,-12.9c-5.6,-3.2 -12,-5.5 -19.2,-6.9c-7.2,-1.4 -14.6,-2.1 -22.2,-2.1c-8.4,0 -17.4,0.3 -27,0.9c-9.6,0.6 -16.8,1.3 -21.6,2.1l-21.6,91.2Z" style="fill:#4d4d4e;fill-rule:nonzero;"/><path d="M2026.2,9.6l-19.2,78.6l-121.8,0l-81,337.2l-93.6,0l81,-337.2l-121.8,0l19.2,-78.6l337.2,0Z" style="fill:#4d4d4e;fill-rule:nonzero;"/><path d="M2301.6,407.4c-16.4,8 -34.6,14.4 -54.6,19.2c-20,4.8 -44.4,7.2 -73.2,7.2c-24.8,-0 -47.5,-4.1 -68.1,-12.3c-20.6,-8.2 -38.2,-19.9 -52.8,-35.1c-14.6,-15.2 -25.9,-33.7 -33.9,-55.5c-8,-21.8 -12,-46.3 -12,-73.5c0,-31.2 5.5,-62.2 16.5,-93c11,-30.8 27.2,-58.3 48.6,-82.5c21.4,-24.2 47.6,-43.9 78.6,-59.1c31,-15.2 66.7,-22.8 107.1,-22.8c19.2,0 38.1,2.2 56.7,6.6c18.6,4.4 38.1,12.2 58.5,23.4l-33.6,72.6c-16.8,-8.8 -31.8,-14.8 -45,-18c-13.2,-3.2 -27.4,-4.8 -42.6,-4.8c-22.8,0 -43.3,4.6 -61.5,13.8c-18.2,9.2 -33.8,21.7 -46.8,37.5c-13,15.8 -22.9,34.1 -29.7,54.9c-6.8,20.8 -10.2,42.8 -10.2,66c0,35.2 7.7,60.8 23.1,76.8c15.4,16 37.5,24 66.3,24c19.2,0 36.9,-2 53.1,-6c16.2,-4 31.3,-9.2 45.3,-15.6l10.2,76.2Z" style="fill:#4d4d4e;fill-rule:nonzero;"/></g></svg>